Coordinates											
version=1											
nRows=98											
nColumns=12											
inDegrees=yes											
											
"Units are S.I. units (second, meters, Newtons, ...)"											
"If the header above contains a line with 'inDegrees', this indicates whether rotational values are in degrees (yes) or radians (no)."											
											
endheader											
time	clav_prot	clav_elev	scapula_abduction	scapula_elevation	scapula_upward_rot	scapula_winging	plane_elv	shoulder_elv	axial_rot	elbow_flexion	pro_sup
5.95	-22.7642033	-3.65564779	-11.25875756	-4.29917479	15.91142373	4.45878696	-28.61365204	11.71514386	59.43613485	0	34.32
5.96	-22.72150105	-3.69248946	-11.45958867	-4.20631377	15.44300907	4.58768506	-26.84756683	12.28636565	54.11565581	0	34.32
5.97	-22.67341612	-3.74658757	-11.25541681	-4.28924739	15.61921767	4.55869945	-30.16653687	11.83662641	60.08308862	0	34.32
5.98	-22.55453588	-3.84589711	-11.04729205	-4.34800156	15.58041368	4.59588199	-31.23686152	12.05019055	59.92217728	0	34.32
5.99	-22.48542091	-3.86495876	-11.07335737	-4.29515636	15.33084697	4.66157028	-30.32126194	12.29976062	55.95696175	0	34.32
6	-22.51340702	-3.73713426	-11.24261941	-4.16243324	15.18557803	4.65916038	-30.39091176	12.17798589	55.96995487	0	34.32
6.01	-22.57634451	-3.60988468	-11.2180229	-4.13959762	15.46222437	4.55132338	-32.691481	11.47394779	60.07644899	0	34.32
6.02	-22.58097631	-3.6228943	-11.32864054	-4.10517631	15.28679527	4.60024377	-33.15861476	11.36593635	61.58048822	0	34.32
6.03	-22.49631646	-3.71101887	-11.20725278	-4.14680252	15.20639985	4.64495376	-34.10847117	11.41312526	62.7310563	0	34.32
6.04	-22.42347618	-3.83176833	-11.13478211	-4.19845068	15.06488499	4.71605738	-34.97132312	11.54743538	63.30363465	0	34.32
6.05	-22.39710026	-3.94483787	-11.24520164	-4.20411201	14.75562308	4.82894371	-33.3796473	12.22455932	57.6232108	0	34.32
6.06	-22.42244592	-3.98228985	-11.34389129	-4.20653908	14.64795106	4.86961878	-33.41770043	12.17037061	57.64193563	0	34.32
6.07	-22.46558605	-3.95248022	-11.42968109	-4.18493816	14.64242317	4.86344475	-34.76719586	11.8498348	62.48740214	0	34.32
6.08	-22.44903095	-3.95650759	-11.55703292	-4.1190842	14.3785164	4.93078683	-31.72274564	12.33791996	55.0274834	0	34.32
6.09	-22.4041826	-4.00558479	-11.46003107	-4.15677931	14.38963765	4.94156002	-31.73779967	12.46259745	54.52057339	0	34.32
6.1	-22.30830485	-4.0932138	-11.15083111	-4.27015992	14.59227361	4.9141273	-33.63611537	12.04641861	59.45085819	0	34.32
6.11	-22.08947425	-4.23930224	-11.02551354	-4.24251548	14.10176728	5.07344591	-29.92150869	13.38795443	46.26973426	0	34.32
6.12	-22.09051865	-4.0847735	-10.94681815	-4.1764863	14.30355611	4.97278595	-29.8320972	13.07179401	46.50667086	0	34.32
6.13	-22.18982439	-3.88329406	-11.00929242	-4.0983919	14.57507976	4.84535901	-32.11029043	11.62447759	60.31923784	0	34.32
6.14	-22.28287822	-3.79992873	-11.28244214	-4.00123062	14.42373499	4.8622985	-29.97516738	11.78917086	55.35826851	0	34.32
6.15	-22.29622968	-3.78030126	-11.14878643	-4.05703993	14.6954886	4.78775154	-31.86678715	11.19432945	60.58015575	0	34.32
6.16	-22.25285071	-3.91525059	-11.0374821	-4.15815146	14.69779128	4.82766945	-32.25896616	11.33286736	60.02743536	0	34.32
6.17	-22.18658025	-4.01373756	-10.91340254	-4.22226365	14.67025816	4.86260819	-32.26733532	11.26979704	60.03201234	0	34.32
6.18	-22.00291103	-4.17099556	-10.59656888	-4.31372814	14.60047749	4.92072595	-32.89825469	11.44719124	60.18302849	0	34.32
6.19	-22.01399887	-4.16084772	-10.60053471	-4.31410601	14.63000314	4.91065958	-32.86996409	11.28120547	60.19513883	0	34.32
6.2	-22.08604636	-4.1468129	-10.92567254	-4.22276075	14.29988775	4.99342873	-30.11761803	11.51971267	55.90894377	0	34.32
6.21	-22.215062	-4.02179131	-11.09031689	-4.17420126	14.45278491	4.92153139	-30.05739518	11.15158758	56.01159105	0	34.32
6.22	-22.29623074	-3.93590185	-11.15410841	-4.15620196	14.61913917	4.85619835	-31.66690345	10.48796592	62.25799652	0	34.32
6.23	-22.32300924	-3.85927377	-11.28807871	-4.07018029	14.50581863	4.86178118	-29.75768578	10.72810994	57.28915507	0	34.32
6.24	-22.30266487	-4.02505528	-11.2248077	-4.18905023	14.48066002	4.91987887	-29.81719903	10.88004836	57.30729315	0	34.32
6.25	-22.3219801	-3.89785916	-11.11113052	-4.17096882	14.78314843	4.8039809	-32.08094634	10.2991709	62.63843654	0	34.32
6.26	-22.34534232	-3.81847085	-11.18017423	-4.10789923	14.76881937	4.78331377	-32.09407681	10.19233729	62.6309156	0	34.32
6.27	-22.35399231	-3.87870813	-11.39377133	-4.06211832	14.40996843	4.89391638	-28.62651075	10.77677153	54.61022879	0	34.32
6.28	-22.35512164	-3.85311898	-11.43327003	-4.02910199	14.35766287	4.89917318	-28.66883152	10.82442141	54.63343696	0	34.32
6.29	-22.21410868	-3.93915199	-11.3755689	-3.99505999	14.00467178	5.00918726	-26.33780121	11.53388683	47.88474933	0	34.32
6.3	-22.31292435	-3.78826625	-11.17558883	-4.06410867	14.69553818	4.79093123	-32.07008387	9.97526857	62.62493607	0	34.32
6.31	-22.27450098	-3.86690508	-11.26060689	-4.04758006	14.40692105	4.887139	-29.67407918	10.50082001	56.45549411	0	34.32
6.32	-22.32262441	-3.86062274	-11.23545045	-4.09341093	14.59225545	4.84043872	-31.36513622	10.006516	61.07622635	0	34.32
6.33	-22.23081836	-3.83128775	-11.28969463	-3.9759103	14.24556748	4.9144469	-28.93255982	10.43760902	56.81034999	0	34.32
6.34	-22.29819721	-3.86069768	-11.41095059	-3.99733073	14.22552382	4.9324819	-29.0134607	10.41829814	56.83090559	0	34.32
6.35	-22.29287633	-3.8182144	-11.33833925	-3.9970104	14.35096077	4.88703306	-29.59538245	10.35832275	56.53167292	0	34.32
6.36	-22.27208839	-3.86317804	-11.34373066	-4.00698697	14.26159788	4.92333107	-29.29188679	10.54277106	55.72075249	0	34.32
6.37	-22.26879001	-3.88048576	-11.37617634	-4.00134684	14.18938463	4.94632697	-28.86919257	10.71551922	54.51449183	0	34.32
6.38	-22.22201045	-3.89932307	-11.23662841	-4.03633371	14.27967466	4.92706072	-29.29527701	10.78090913	53.87169351	0	34.32
6.39	-22.26876698	-3.86774128	-11.1217282	-4.1037242	14.62344961	4.83213478	-32.75384834	10.01785646	62.51383355	0	34.32
6.4	-22.28545761	-3.84326294	-11.1238927	-4.1000737	14.67846525	4.81127583	-32.75444188	10.02980449	62.5083342	0	34.32
6.41	-22.30439731	-3.87199242	-11.28943891	-4.06265063	14.44324092	4.88056545	-30.17338987	10.56212283	56.01410571	0	34.32
6.42	-22.35042388	-3.9061389	-11.37813739	-4.08380214	14.41368823	4.90140747	-29.95165059	10.51210263	55.61530547	0	34.32
6.43	-22.36161925	-3.79961664	-11.30370429	-4.05584669	14.61794629	4.81641379	-32.02773159	10.07691229	61.47928147	0	34.32
6.44	-22.36247497	-3.79045068	-11.26221784	-4.06820474	14.69351373	4.79445333	-32.01469177	9.99782796	61.4802897	0	34.32
6.45	-22.28250821	-3.84835393	-11.31467001	-4.01846083	14.34724285	4.89673798	-27.90086364	11.47544841	45.29096501	0	34.32
6.46	-22.35317921	-3.78430465	-11.30392427	-4.03877912	14.59940532	4.81601533	-31.48829443	10.04181514	61.31916347	0	34.32
6.47	-22.3295968	-3.86568021	-11.37049282	-4.04375154	14.38317906	4.89532949	-29.6128595	10.5791161	56.12329265	0	34.32
6.48	-22.21433078	-3.96462639	-11.43459627	-3.98577019	13.89427144	5.04486355	-25.82770824	11.91590786	43.7330211	0	34.32
6.49	-22.41225802	-3.8044226	-11.65304031	-3.94818977	14.17551016	4.93275751	-26.01503074	11.45808164	44.36047916	0	34.32
6.5	-22.3644072	-3.74152435	-11.27059797	-4.03414891	14.70617196	4.77547709	-31.40348903	10.15405634	59.33314586	0	34.32
6.51	-22.38979263	-3.65703036	-11.25550468	-4.00617622	14.84211204	4.71613586	-31.3621434	9.99598634	59.36086671	0	34.32
6.52	-22.39400661	-3.70095381	-11.43184252	-3.96236236	14.54022894	4.80702475	-28.83895464	10.63411413	53.42876756	0	34.32
6.53	-22.4567769	-3.6512905	-11.51143828	-3.94635073	14.61091098	4.7762727	-28.85055949	10.58580882	53.48179393	0	34.32
6.54	-22.49215208	-3.59538496	-11.49253342	-3.94682827	14.77010414	4.71977294	-30.24236539	10.00261537	59.21693956	0	34.32
6.55	-22.56288272	-3.56426639	-11.6111852	-3.93240658	14.79021292	4.70788322	-30.2850832	9.96298278	59.21894666	0	34.32
6.56	-22.5853391	-3.56245104	-11.68745119	-3.91652305	14.72856984	4.72365181	-29.22125582	10.23122721	55.6343076	0	34.32
6.57	-22.61318262	-3.49598019	-11.55943171	-3.95043565	15.05188793	4.62179776	-32.03693041	9.63999769	61.92687149	0	34.32
6.58	-22.51295685	-3.60000109	-11.60452254	-3.91826303	14.64082072	4.75514421	-28.01067677	10.87953059	49.46142526	0	34.32
6.59	-22.61116535	-3.50443369	-11.54903214	-3.95874389	15.05964553	4.62235275	-31.97890849	9.76260642	61.67444256	0	34.32
6.6	-22.60019828	-3.57088326	-11.65595106	-3.94746709	14.82052252	4.70345352	-29.86060076	10.42585409	55.27131448	0	34.32
6.61	-22.50467532	-3.62980798	-11.61063424	-3.92839346	14.59354784	4.77600538	-27.77189558	11.39585472	45.58596471	0	34.32
6.62	-22.65582233	-3.58373253	-11.84757272	-3.91827765	14.6558749	4.75184943	-27.73137434	11.32028008	45.76827645	0	34.32
6.63	-22.64731968	-3.46618501	-11.61003643	-3.93678352	15.07931363	4.60690328	-32.16148767	9.90057171	61.03029633	0	34.32
6.64	-22.65756707	-3.43875571	-11.64711234	-3.91141545	15.05916988	4.60352739	-32.09384964	9.86953807	61.18063031	0	34.32
6.65	-22.66569953	-3.50158331	-11.61916275	-3.97053993	15.10148765	4.61273727	-32.10380265	9.85378563	61.17961096	0	34.32
6.66	-22.64711242	-3.58507953	-11.59877065	-4.01867905	15.04519413	4.65238764	-30.79055202	10.47271403	54.25317219	0	34.32
6.67	-22.67633889	-3.58281633	-11.44795531	-4.10423316	15.38054192	4.56730293	-33.8276718	9.76147391	61.99840964	0	34.32
6.68	-22.70913162	-3.51227917	-11.52418373	-4.05206433	15.37906142	4.54675069	-33.84079806	9.67626163	62.66756972	0	34.32
6.69	-22.82470175	-3.50871321	-11.89721747	-3.9837709	15.09448415	4.62216671	-32.83598758	9.5685819	67.19101895	0	34.32
6.7	-22.80431114	-3.46546682	-11.7236916	-4.0128134	15.34245269	4.5447099	-33.48615244	9.70323142	61.68987913	0	34.32
6.71	-22.79349072	-3.53367035	-11.84725499	-3.99633585	15.07658033	4.63327455	-30.93286007	10.44041333	54.34264416	0	34.32
6.72	-22.81602778	-3.57170715	-11.88942529	-4.02100609	15.05446929	4.65147111	-30.74341776	10.39454471	53.81431086	0	34.32
6.73	-22.75908558	-3.59557648	-11.8501973	-4.00781373	14.94513356	4.68499855	-29.75695516	10.75862888	50.37933592	0	34.32
6.74	-22.87622966	-3.48254898	-11.77856065	-4.05762171	15.45035578	4.52467618	-33.99343528	9.58421479	62.6948359	0	34.32
6.75	-22.69253456	-3.63524981	-11.68565653	-4.05069536	15.0099539	4.67869363	-29.64654027	11.38066602	43.69014341	0	34.32
6.76	-22.85192627	-3.64382207	-12.16645604	-3.97811932	14.66425657	4.77435033	-27.61933317	11.08105342	48.63638297	0	34.32
6.77	-22.84183643	-3.57313465	-12.14844404	-3.93181097	14.69635589	4.74409662	-27.69886564	10.89379132	48.71795378	0	34.32
6.78	-22.90065896	-3.38677651	-11.86186984	-3.97960005	15.42459983	4.5021878	-33.35500504	9.47962976	61.90766177	0	34.32
6.79	-22.85041622	-3.41832181	-11.90065335	-3.94397916	15.20247024	4.5672249	-31.15714762	10.03747731	56.39955116	0	34.32
6.8	-22.84760387	-3.410912	-11.87122686	-3.94941176	15.24642418	4.55362054	-31.11641262	10.10585546	55.72063296	0	34.32
6.81	-22.93557024	-3.29622676	-11.82525929	-3.96358935	15.62465206	4.42400124	-34.41790055	9.36703501	63.32857671	0	34.32
6.82	-22.86006869	-3.43129814	-11.86983231	-3.97313486	15.27556548	4.55285258	-31.29152464	10.15458785	55.1377594	0	34.32
6.83	-22.88146315	-3.34791523	-11.77336817	-3.9764855	15.53311955	4.46183086	-33.48648958	9.53530356	61.30452588	0	34.32
6.84	-22.87623669	-3.29234585	-11.77760757	-3.93443598	15.53550669	4.44398111	-33.4878022	9.54936271	61.3045344	0	34.32
6.85	-22.90623509	-3.23921904	-11.77602816	-3.92421276	15.64731531	4.39993229	-33.96697051	9.39069974	62.23127434	0	34.32
6.86	-22.85781339	-3.29435281	-11.8882224	-3.87483141	15.29942144	4.50459211	-30.7411704	10.20082939	54.2120162	0	34.32
6.87	-22.91883173	-3.21584016	-11.74805885	-3.93040078	15.73911564	4.36915783	-34.32775244	9.33441048	62.47582069	0	34.32
6.88	-22.8839599	-3.28319816	-11.78757559	-3.9303805	15.54518155	4.43883199	-31.65495549	9.75141508	57.07526541	0	34.32
6.89	-22.87560854	-3.26487497	-11.77518828	-3.9171443	15.55000862	4.43183037	-32.35871712	9.7842004	57.72351701	0	34.32
6.9	-22.91012475	-3.21111689	-11.68798234	-3.94591641	15.81611658	4.34797194	-34.66737014	9.27182649	62.80127046	0	34.32
6.91	-22.77829461	-3.2048031	-11.75350924	-3.8105434	15.33378078	4.46630101	-30.36502569	10.13099792	54.2132161	0	34.32
6.92	-22.8340627	-3.31066785	-11.66232446	-3.96164012	15.59738704	4.43262317	-33.66761669	9.53789949	62.62811157	0	34.32
